<?xml version="1.0" encoding="utf-8"?>
<!-- Generator: Adobe Illustrator 25.2.3, SVG Export Plug-In . SVG Version: 6.00 Build 0)  -->
<svg version="1.1" id="Layer_1" xmlns="http://www.w3.org/2000/svg" xmlns:xlink="http://www.w3.org/1999/xlink" x="0px" y="0px"
	 viewBox="0 0 613.2 698" style="enable-background:new 0 0 613.2 698;" xml:space="preserve">
<style type="text/css">
	.st0{fill-rule:evenodd;clip-rule:evenodd;fill:#995A3F;}
	.st1{fill-rule:evenodd;clip-rule:evenodd;fill:#2F3330;}
</style>
<g id="Character_ice-cream">
	<path id="Combined-Shape" class="st0" d="M347.7,101.8c4-0.4,4.5,5,5.1,7.4c1.5-1,2.9,0,3.2-2.3c4.8,5.1,8.7,10.9,13,16.4
		c4.1,5.3,10.5,9.5,14.1,15c3,4.7-2,11.9-2.6,16.9c-0.7,5.7,0.8,12.1,4.6,16.4c1.7,2,4.1,3.4,6.7,4c2.7,0.5,5.2-1,7.5-0.7
		c1.9,0.3,2,1.6,2.7,3.5c0.8,2.7,2.2,5,4.3,6.9c2.4,2.1,5.1,2.6,6.9,5.4c1.6,2.4,2.6,4.7,5.1,6.4c3.4,2.2,8.8,2.9,8.4,8.1
		c0.6-0.5,1.2-0.9,1.7-1.4c1.4,4.3,3.1,8.5,5.2,12.6c0.9,1.5,1.4,3.2,1.4,5c0,1.4-0.8,2.5,0,3.8c1.3,2.2,4.9,1.9,6.5,3.6
		c1.7,1.8-0.1,4.2,1.9,5.8c-0.8,0.2-3,2.1-2.2,3.2c1.2,1.6,1.3-0.6,2.1-0.3c1.9,0.6,1.5,3,3.1,3.7c0.3,0.1,0.3-1.3,0.3-1.7l0,0
		l1.2,2.3c9.9,19.1,21.4,37.3,30.7,56.6l1.1,2.3c17.7,37.6,38.2,73.7,61.3,108.2c5.4,8.1,11.4,16.1,16.4,24.5s11.3,15.8,16.9,23.8
		c5.7,8.2,11,16.8,16.8,25c4.6,6.5,10.3,13.5,10.2,21.9c0,3.7-0.6,7.9-4.2,9.9c-0.1-1.5-2.4,0.2-3,0.5c-2.4,1.6-1.1,1.5-3.7,0.9
		c-4.2-0.9-7.8,0.3-11.7-2.1c-8.3-5.1-16.4-10.3-24.9-15.2c-18.2-10.5-36.2-21.2-53.1-33.8c-29.5-21.9-61.6-41.5-88.8-66.5
		c-27.1-24.9-55.6-49.6-87.8-67.8c-2.2-1.2-8.3-3.1-7.8-6c0.5-2.6,6.1-6.1,8-7.9c6.8-6.1,13.8-11.9,20.3-18.3
		c12.1-11.8,24-24.8,33.7-38.7c4.7-6.7,7.1-14.2,9.8-21.9c2.4-6.8,4.7-15.1,0.7-21.8c-1.5-2.9-4.7-4.6-7.9-4.1
		c-2.9,0.2-2.8,0.8-3.9-2.3c-1.2-3.3-2.3-7.2-5.6-9.1c-3.5-2-5.8,0.1-8.6,2.1c-3.2-4.6-7.2-12.7-13.6-13.1
		c-6.8-0.5-10.6,7.9-12.9,12.9c-6.9,14.9-15.9,28.8-25.6,42c-10.5,14.4-21.2,29-32.7,42.5c-2.4,2.9-5.2,7-8.7,8.8s-6.5,0.1-9.5-1.9
		c-7-4.8-13.9-9.8-21.2-14.2c-8.1-4.9-16.5-9.4-24.7-14c-3.7-2-7.1-4.5-10.9-6.3c-3.5-1.7-7.3-2.5-10.9-4
		c13.2-3.9,27.1,1.2,39.5,5.3c6.5,2.1,13.2,4.3,20.2,3.8c6-0.5,11.4-3.7,16.1-7.2c8.6-6.3,9.2-15.8,6.4-25.4
		c-3.2-11-8.1-21.7-11.8-32.6c-1.7-5-2.8-10.2,1-14.5c3.4-3.8,7.9-4.3,12.6-2.8c11.4,3.7,21.5,7.1,33.6,6.7
		c9.5-0.3,21.6-3,28.1-10.7c3.5-4.2,3.7-10.1,3.7-15.3c0-6.3-0.4-12.5-1.2-18.7c-1.6-11-5.6-22.1-0.5-32.8
		C341.1,108,344.5,102.2,347.7,101.8z M52.5,187.7c3-4.1,11.1-13.7,17.4-11.6c1,0.5,1.9,1.3,2.6,2.3c0.5,0.7,1,1.3,1.5,2
		c0.1,0.6,0.7,1,1.3,0.9c0.1,0,0.3-0.1,0.4-0.1c2.2,3,5.3,5.3,6.5,9s4.6,7.2,6.5,10.6c1.5,2.6,5,9.6,4.7,12.8v8.3
		c-0.3,3.2-6.4,9-8.5,11.2c-5.3,5.4-11,6.1-18.9,5.4c-6.6-0.6-15.2-2.8-19.7-8.1c-4.3-5.1-4.2-12.9-3.6-19.1
		C43.6,202.7,47.4,194.8,52.5,187.7L52.5,187.7z M72.9,189.1c-1.2-2.3-3.9-2.8-6.2-2.5s-5,0.5-7.2,1.5c-2,1-3,2.6-5.4,2.1
		c1,1.7-0.8,2.7-1,4.2c-0.3,1.9,0.3,3.8,1.6,5.2c2.7,3.1,6.6,3,10.3,3.3c3.1,0.3,7,0.8,8.8,3.7c1.2,1.9,0.1,3.3,0.7,5.1
		c0.4,1.4,2.1,2.2,2.9,3.4c2.5-3.7,2.4-11.6,0.9-15.5c-0.8-2.1-1.9-4.1-3.2-5.9c-0.5-0.5-1-1-1.4-1.6
		C73.2,191.2,73.3,189.9,72.9,189.1L72.9,189.1z"/>
	<g id="Ink">
		<path id="ink-shape" class="st1" d="M364.7,680.6c4.5-1.8,10.1-0.9,14.9-0.9c6,0.1,11.9,0.6,17.9,1c11.4,0.9,22.8,0.5,34.2,1.6
			c5.7,0.5,11.3,1,17,1.5c5,0.4,10.7,1.7,15.7,0.8c2-0.4,7.6-2.3,6.6-5.3c-0.8-2.3-7-3.7-9-4.4c-4.8-1.6-9.7-2.7-14.5-4
			c-2.5-0.7-4.9-1.5-7.5-1.2c-2.2,0.2-4.5,1.9-6.8,1.7c-3.3-0.3-5-4.4-7.5-6.3c-3.9-2.9-6.7-1.4-9.7,1.9c-2.2,2.4-4.3,6-7.9,6.2
			c-4.6,0.3-5.5-3.7-3.5-7c1.9-3.1,6.9-6.2,7.2-10c0.2-2.4-3.7-8.9-5.9-9.8c-3.7-1.5-9,2.5-12.4,3.8c-5.9,2.2-11.9,4.1-17.9,6.1
			c-4.1,1.4-10.2,1.5-10.9,6.3C363.5,668.4,364.7,674.5,364.7,680.6 M130.5,588.3c1.2-2.6,2.4-4.1,0.1-6.6c-1.3-1.4-3.2-2-4.5-3.5
			c-2-2.1-5-8-0.8-9.4c4-1.4,7.4,4.2,10.7,5.4c4.1,1.6,6.7-1.1,7.3-5c0.8-5.1-0.1-10.3,0.5-15.4c0.6-5,2.3-9.2,3.7-14
			c0.9-3.3,2-6.5-2.1-7.3c-3.8-0.7-8.2,0.9-12,1.1c-6,0.2-12,0.7-18,1.5c-6.6,1-6.5,7.8-8.2,13.3c-4,13.5-9.5,26.7-12,40.5
			c-1.1,6,1.8,10.1,5.2,14.8c4.2,5.9,8.6,11.8,13.3,17.2c3.2,3.6,6.8,7,11.4,8.7c5.2,1.9,7.2-0.2,6-5.4c-1.6-6.8-4-13.4-3.7-20.5
			c0.1-2.6,0.9-5.4-1-7.5c-1.3-1.5-3.5-2-5.2-2.9c-2.8-1.5-7.1-6.4-1.7-7.4C123,585.3,126.9,587.8,130.5,588.3 M255.7,321
			c3.3,3.7,6.9,7.2,10,11.1c1.8,2.2,3.1,4.8,5,6.9c4.2,4.6,8.4-0.5,12.2-3.5c14.7-11.6,28.6-24.3,42.6-36.7
			c6.7-5.9,13.8-11.4,20.4-17.5c6.7-6.1,12.2-13.3,18.5-19.8c3-3.1,6.6-6.2,8.4-10.3c1.6-3.4,1.9-7.1,3.7-10.5
			c3.1-5.8,8.8-12.6,7.5-19.7c-3.9,4-10.3,18.5-17,11.7c-4.8-4.9,0.1-12-0.1-17.7c-4.6,1.9-3.4,9.8-8.2,11.2
			c-2.6,0.8-4.9-1.6-6.1-3.7c-2.1-3.6-1.3-7.4-0.4-11.2c0.7-2.6,4.8-11.2,0.7-12.3c-3.6-0.9-6.6,5.7-7.8,8
			c-2.2,4.3-3.9,8.7-6.3,12.9c-4.1,7.2-8.9,14.2-13.4,21.1c-9.3,14.4-20,27.9-31,41.1C282.8,296.4,270.2,309.6,255.7,321
			 M359.5,366.8c-0.5,12.7-11.4,22.3-20.8,29.3c-12,9-23.2,19.3-37.5,24.4c-5.5,2-12.4,1.4-14.7,7.6c-0.9,2.4-0.1,3.3,0.9,5.8
			c1.4,3.9,2.5,7.9,3,12c2.4,13.7,0.1,27.7-8.2,39.1c-4.4,6.1-10,11.2-15.8,15.9s-11.2,10.2-17.6,14.1c-13.6,8.3-28.7,13-44.4,15.3
			c-8.1,1.2-16.3,2.3-24.6,2.7c-4.3,0.2-8.5,0.3-12.8,0.1c-1.9-0.1-9-1.7-10.4-0.6c-1.1,0.8-1.5,5.9-1.7,7.3c-0.5,3-0.8,5.9-1.4,8.9
			c-1.2,5.9-2.9,12.6-1.1,18.6c0.5,1.7,1,3.1,2.5,3.7c1,0.4,2.8-0.3,3.8-0.4c2.3-0.2,4.5-0.3,6.8-0.1c7.6,0.8,15.2,2.8,22.9,2.2
			c16.5-1.1,33-2.3,49.3-4.9c7.9-1.3,15.6-3.6,23.4-5.5c7.4-1.7,14.9-3.5,21.8-6.8c13.6-6.5,26.2-14.8,37.4-24.9
			c12-10.6,19.9-23.2,27.4-37.3c6.6-12.4,12.2-24.9,11.9-39.1c-0.2-9-1.5-20.2,3.7-28.1c2.4-3.6,7.2-7,11.7-5.1
			c8.1,3.5,0.4,10.4-2.6,14.2c-4.5,5.4-3.9,13.7-4.3,20.4c-0.5,7.9-2.3,14.8-4,22.4c-1.7,7.4,1.7,16.3,2.1,23.9
			c0.4,8.2,0.1,16.5,0,24.7c-0.2,16.4,0.6,32.7,0.5,49.1c0,8.5,0.2,17-0.3,25.5c-0.5,7.7-2.1,15.1-3.5,22.7
			c-1.4,7.5-3.3,16.4-2.9,24c18.6-7.1,36.7-15.5,55.6-21.8c-5.9-5.1-6.2-12.4-6.6-19.7c-0.6-9.6-2.2-19-2.9-28.6
			c-1.3-19.2-1.1-38.4,0.6-57.6c1.7-20.2,4.8-40.4,5.4-60.8c0.3-9.8-0.5-19.6-2.1-29.3c-1.3-8.1-2.5-18.4-6.8-25.6
			c-4.1-6.9-11.5-11.3-17.7-16C376.6,381.9,368.2,374.1,359.5,366.8 M360.6,102c2.3,3.1,4.9,6.1,7.7,8.8c2.9,2.8,4.1,2.2,7.5,0.7
			c6.8-2.9,6.7-6.3,2.9-12.2c-8.9-13.7-12.2-29.9-21.6-43.3c-9.2-13.2-22.7-23.9-36.8-31.5c-15.1-8.2-31.5-10.8-48.6-10.5
			c-8.7,0.1-17.4,0.7-26.1,1.7c-8.4,0.9-15.9,3.7-24.1,5.8c-4.1,1.1-8.3,1.9-12.3,3.4c-3.5,1.3-6.7,3.2-10.2,4.4
			c-7.7,2.6-15.5,5.5-22.5,9.7c-6.7,4.1-13.1,8.6-19.2,13.6c-6.4,5.3-12,11.4-19,16c-6.3,4.2-11.4,9.9-17.1,14.8
			c-6.1,5.3-11.4,11.4-16,18c-4.4,6.4-6.1,14.6-8.7,21.8c-3.1,8.4-6.2,17.3-7.3,26.1c-2.2,16.5,2.7,35.8,8.9,51.1
			c6.1,15.1,16.1,27.7,27.9,38.8c5.7,5.5,12.1,10.2,19.1,13.9c6,3.1,13.9,8.6,20.5,4.8c2.7-1.6,4.8-3.4,7.9-4.1
			c3.4-0.8,6.7-0.5,9.4-2.9c2.3-2.1,3.4-4.6,6.4-5.9c3.6-1.5,7.8-1.8,11.7-1.8c8.6,0,17.3,2.2,25.5,4.6c7.6,2.2,13.9,5.5,21.9,3.5
			c6-1.5,15.5-5.5,16.8-12.3c1.1-6.1-3.3-14-5.5-19.5c-3.2-7.4-5.8-15.1-7.8-22.9c-1.5-6.3-4-16.4,0.4-22.1
			c4.3-5.7,14.1-5.6,20.2-4.2c4,0.9,7.7,2.8,11.7,3.8c4.1,0.9,8.3,1.5,12.5,1.9c14.5,1.6,35-2.1,34.3-20.5
			c-0.7-16.5-9.8-33-4.4-49.5c2.2-6.7,6.6-14.5,14-16.3c5.8-1.4,13.7,0.1,18.9,3.1C363.7,95.2,367.8,100.3,360.6,102 M70.3,175.5
			c-14.6,2.8-24.2,18.2-26.9,31.8c-1.2,6.2-1.6,13.5,0.7,19.5c2.7,6.9,10.3,9.8,17.1,11.2c7.7,1.7,14.5,1,20.6-4.3
			c2.7-2.3,5-5.1,6.9-8.1c2-3.1,4.7-5.3,2.7-8.7c-4.9-8.3-9.1-17-12.3-26.1c-1.4-4.2-2.7-8.2-3.7-12.5C74.6,175,74.2,173,70.3,175.5
			 M197.9,267.7c-2.8,2.7-6.1,4.9-9.7,6.3c-4,1.6-5.2,0.8-5,5.5c0.2,5.1,0.3,9.2-2.1,13.9c-1.1,2.2-5.1,5.2-4.3,7.7
			c1.1,3.6,12.3,7.2,15.5,8.5c7.8,3,16.9,3.1,24.2-1.2c8.5-4.9,9.3-13.9,6.1-22.5c-0.3-0.9-1.6-2.5-1.3-3.5c0.6-1.8,2.9-1.6,4.2-0.9
			c2.9,1.5,4.1,6.2,4.7,9.1c1.7,7.8-1.4,16.2-7.2,21.5c-3,2.6-6.6,4.6-10.4,5.8c-2.1,0.7-4.4,1.3-6.6,1.6c-1.8,0.2-4.1-0.4-5.9,0.1
			c-3.1,0.9-3.2,4.7-4,7.5c-1.3,5-2,10.2-2.1,15.4c-0.3,8.3,0.7,18.8,5.5,25.8c11.1,16.4,32.6,22,49.3,30.5
			c8.8,4.6,17.2,10,25.1,16.1c0.9,0.8,1.9,1.6,2.9,2.2c3.2,1.6,0.4,1,2.4,0c1.6-0.8,2.9-2.5,4.5-3.4c3.7-2.1,7.9-3.2,11.7-5.2
			c8.8-4.6,16.6-10.2,24.5-16.3c8-6.2,16.2-11.8,23.5-18.9c3.1-3,6.6-5.4,9.7-8.3c3.2-2.9-0.9-4.1-3.6-6.2
			c-9.1-7.2-18.1-14.6-27.8-20.9c-3.2-2.1-6.1-5-9.5-6.8c-3.5-2-5.6-0.2-8.4,2.3c-2.9,2.8-6,5.4-9.3,7.7c-4.5,3.1-9.7,4.5-14.1,7.5
			c2.9,3,9.9,4,10.9,8.6s-5.9,8.2-9.1,10c-5.7,3.1-11.9,5.2-18.3,6.4c-5.3,1.1-13.1-0.6-17.3,3.4c-1.2-2.5-2.3-3.9-0.4-6.3
			c2-2.4,5.5-2.9,8.3-3.8c7.6-2.5,15-5.9,22.3-9.1c-1-2.3-3.4-3.8-5.2-5.3c-2.6-2.1-4.9-4.5-7-7.1c-4.1-5-7.8-10.3-11.7-15.5
			c-1.7-2.2-3.2-4.5-6.3-3.2c-2.7,1.1-5.4,3.9-8,5.4c-5.9,3.3-11.1,6.5-17.6,8.6c-2.6,0.9-13.4,3.3-10.5-3.3c0.8-2,3.7-2.8,5.4-3.6
			c3.2-1.6,6.4-3.2,9.6-5c6.4-3.7,12-8.5,18-12.8c6.6-4.7,13.3-9.4,19.5-14.6c-6.2-4.1-13-7.1-19.4-10.8
			c-6.4-3.8-12.9-7.2-19.6-10.5c-5.4-2.6-10.6-5.6-15.5-9C206.6,269.9,200,264.2,197.9,267.7 M391.7,134.9c-0.8,0.2-1.6,0.4-2.4,0.7
			c5.4,8.3-0.6,18.5,1.1,27.4c5-3,5.6-14.4,13.2-12.3c8.2,2.3,4.1,12.3,6.6,18.1c3.9-3.4,8.4-0.2,9.9,3.8c1.7,4.3-0.7,8.3,0.1,12.6
			c0.8,4.4,3.3,1.5,4.7-1.1c1.8-3.3,3.3-7.8,2.6-11.7c-0.8-4.6-3.9-9-5.8-13.2s-3.7-8.5-6.5-12.2C410,140.1,400.9,133.8,391.7,134.9
			 M444,234c-3.5-8.8-8.7-16.9-12.1-25.7c-1-2.6-1.5-6.7-4.1-8.3c-1.7-1.1-4-0.4-5.8-1c-2-0.7-3.7-1.8-5.2-3.3
			c-2.4-2.5-3.2-6-6.1-8.2c-3.7-2.8-6.6-3.9-8.4-8.7c-1.4-3.7-1.4-4.3-5.6-3.5c-4.6,0.9-8.3-0.2-11.4-3.8c-5.3-6-5.9-14.5-3.3-21.8
			c1.2-3.4,3.4-7.4,1.6-10.9c-1.6-3.3-5.6-5.7-8.2-8.3C369,123.8,364,116,358,109c-1.5-1.6-2.8-3.4-4-5.3c-0.7-1.2-1.1-3.3-2.7-3.7
			c-2.8-0.6-6.7,4.2-8.1,6c-10.3,12.9-2.9,30.5-1.7,45c0.6,7.4,2.1,16.3-1.2,23.3c-3.1,6.6-10.9,9.9-17.5,11.7
			c-8.9,2.5-18.5,2.4-27.5,0.9c-4.7-0.8-9.3-2.1-13.8-3.8c-4.6-1.7-9.4-4.7-14.1-1.6c-6,4.1-4.2,12.2-2.9,18.2
			c2.2,9.7,6,18.8,9.3,28.1c2.8,7.8,5.1,17.7-0.8,24.7c-6.2,7.2-15.3,11.2-24.8,11c-18.9-0.8-36.2-14.9-55.5-9.1
			c3.6,1.5,7.5,2.4,11,4.1c4.3,2.1,8.2,4.8,12.4,7.1c8,4.4,16,8.8,23.8,13.5c7,4.3,13.7,9,20.4,13.7c8.4,5.9,12.8-0.6,18.2-7
			c11.7-14,22.9-28.7,33.6-43.5c9.3-12.9,17.9-26.3,24.6-40.6c2.4-5.1,6.4-13.9,13.5-12.8c6.2,0.9,9.9,8.4,13.1,13
			c2.2-1.6,4.2-3.8,7.2-2.9c2.5,0.7,4.3,3.3,5.4,5.5c0.8,1.5,1.3,6.6,2.6,7.4c0.9,0.5,4.4-0.6,5.9-0.3c5.3,1.2,7,8.1,7,12.8
			c-0.1,6.5-2.8,13.1-5,19.1c-5,13.6-13.6,24.2-23.1,34.9c-9.6,10.7-19.7,20.9-30.5,30.4c-2.7,2.4-5.3,4.8-7.9,7.2
			c-2.1,2-5.5,4.1-7.2,6.5c-3.1,4.4,5.2,6.4,8.3,8c13.3,6.9,25.5,16,37.2,25.2c12.1,9.5,24.2,19.1,35.8,29.2
			c11.3,9.9,22,20.4,34,29.6c12.3,9.5,25.1,18.2,37.7,27.2s24.9,18.5,37.5,27.5c12.3,8.8,25.5,16.4,38.5,24.2
			c6.8,4.1,13.6,8.1,20.4,12.2c5.5,3.3,11.5,8.3,18,8.8c5.9,0.4,11.5,2.5,15-3.9c2.7-4.9,1.6-11.5-0.8-16.2
			c-2.8-5.8-7.3-11-10.9-16.4c-4.1-6.1-7.9-12.4-12-18.6c-3.9-5.9-8.2-11.3-12.6-16.9s-7.8-12-11.7-18c-8.4-12.8-17-25.3-25-38.3
			c-18.3-29.9-34.6-60.8-50.2-92.1C475.2,291.4,443.1,234.5,444,234 M418.3,417.9c9.8,33.9,4.2,68.4,2.1,102.9
			c-1,17.4-1.2,35-1.6,52.5c-0.2,8.5-0.2,17,0.1,25.5c0.2,4.3,0.5,8.5,0.8,12.8c0.3,3.8-0.7,7.9-0.3,11.6c0.6,4.7,9.9,5.6,7,11.6
			c-1.9,4-8.6,4.6-12.2,6.3c1.6,1.8,4.1,4.6,6.7,4.8c2.4,0.2,4.2-1.9,6.4-2.7c1.9-0.7,4.5-1.4,5.7,0.8c1.3,2.3-1.4,4.9-2.4,6.7
			c3.5,0.7,6-1.4,9.2-1.2c3.4,0.2,3.5,3.5,5.7,5.4c2.5,2.2,6.9,2.7,10,3.6c3.7,1,7.2,2.5,10.6,4.3c6.1,3.6,10.8,9.3,13.1,16
			c2.3,6.7-1.3,12.4-6.5,16.5c-2,1.5-4.8,3.3-7.4,2.5c-3-0.9-3.4-3.4-7-3.2c-3.2,0.2-6.3,1.5-9.6,1.6c-4.8,0.2-9.6-0.6-14.4-0.4
			c-19.4,0.7-38.7,0.9-58.1-1c-5-0.5-9.9-0.9-14.8-1c-3.8-0.1-4.2-3-4.8-6.6c-1.6-8.7,1.9-17.2,0.2-25.6c0.1,0.6-2.6-0.9-2.9-1.2
			c-2-1.7-2.7-4.1-3.3-6.5c-1.6-6.6-1.6-13.3-1.1-20c1.1-15.3,4-30.4,3.7-45.8c-0.1-7.7,0.1-15.5,0.1-23.2c0-7.1,0.6-14.1,0.7-21.2
			c0.1-15.5,1.8-30.8,2.2-46.2c-3.2,3.1-4.9,7.5-7,11.4c-2.5,4.8-5.3,9.5-8.4,14c-6.3,9.2-14.9,16.8-23.7,23.6
			c-16.8,13-35.1,23.1-55.7,28.6c-22.3,5.9-45,10.1-67.9,12.3c-5.3,0.6-10.7,0.7-16,0.3c-3.5-0.3-9.2-3.2-12.5-1.7
			c-3.8,1.6-4.5,5.5-9.5,4.4c-1.9-0.4-3.3-1.7-4.9-2.5c-2.4-1.3-2.5-0.4-4.8-0.2c-2.6,0.2-4.1-1.1-6.4,1c-1.9,1.8-1.7,3,0,4.7
			c2.5,2.3,6.4,2.7,8.9,5.1c2.4,2.4,2,5.3-1.7,5.3s-7-2.6-10.7-3c0.8,10.8,4,22.8,0.4,33.3c-1.7,4.9-5.2,8.1-10.6,8
			c-8.9-0.1-16.7-8.3-22.1-14.7c-3-3.5-5.4-7.5-8.2-11.1c-2.9-3.7-6.1-7.4-7.8-11.9c-1.8-4.8-1.3-9.5-0.3-14.4
			c1.2-6,2.4-12.2,3.9-18.2c2.9-11.6,8.7-22.2,11.7-33.8c1.1-4.4,1.1-9.5,3.9-13.3c3-4,7.6-4.2,12.2-4c5.7,0.3,11.3,0.9,17,1.6
			c3.6,0.4,11.4,3,14.3,0.8c1-0.8,1-2.7,2.2-3.4c1.1-0.7,2.9-0.2,4.2-0.1c6.1,0.5,12.2,1,18.4,1.2c22.7,0.7,46.7-2.9,66.9-13.4
			c9.4-4.9,16.6-12.6,24.1-19.9c7.4-7.2,13.9-14.9,15.9-25.2c1.8-10,1.1-20.3-1.9-30c-3-8.9-13.4-14.4-21.1-18.8
			c-10.7-6-21.8-11.3-33.2-15.6c-1.8-0.7-4-1.6-6-1.2c-2.4,0.4-4.1,2.6-6.3,3.5c-2.6,1.1-5.9,1.1-8.7,1.8c-2.7,0.6-5.3,1.5-8.1,1.9
			c-8.7,1.3-20.8,0.3-28-5.3c-11.7-9-4.6-21.8-0.9-32.8c-4-0.1-7.3,0.8-11.1-0.9c-3.8-1.7-6.8-4.7-8.5-8.5
			c-3.1-6.8-1.3-14.7-0.4-21.8c0.3-3.2,1-6.4,2.1-9.5c1-2.3,2.5-4.6,3.1-7.1c0.6-2.7-0.2-2.9-2.5-4.2c-3.4-1.8-6.2-4.6-8.2-7.9
			c-4.2-6.9-4.3-14.5-0.9-21.8c1.4-2.9,4.7-7,4.3-10.4c-0.3-3-3.7-5.3-5.7-7.2c-6.1-5.9-12.5-11.5-19.3-16.7
			c-3.3-2.3-6.5-4.8-9.5-7.4c-2.1-2-4.2-6.5-7.1-7.5c-2.9-1.1-4.8,2.1-6.8,3.9c-3.1,2.7-6.1,5.8-9.5,8.1c-6.1,4.2-13.7,3.4-20.6,2.1
			c-7.1-1.3-13.9-3.9-20-7.9c-2.4-1.6-5.3-4.9-8.3-5.1c-3.2-0.3-6.7,2.9-9,4.8c-6,5-7.8,12.8-11.3,19.5c-4,7.2-5.5,15.5-4.5,23.7
			c1,7.6,3.9,13.3,8.2,19.5c0.9,1.3,3,3.7,1.5,5.1c-1.9,1.7-5.7-1.7-7-2.8C4.2,294.7-2.9,278.1,1.2,261.4c2.2-9,6.5-17.2,11.4-24.9
			c2.1-3.3,4.2-6.6,7.9-8.2c4.2-1.9,8.9-1.7,13.4-2.1c-3.1-15.1-4.1-31.6,5.4-44.8c7.3-10.1,22.2-19,34.1-10.8
			c-0.5-11.2-2.1-21.8,0.9-32.8c1.4-4.9,3.2-9.7,5.4-14.3c2.2-4.5,5.2-8.3,7-13c7-18.4,20.4-34.9,34.8-48.2
			c14.5-13.4,28.7-29.7,47-38.1c19.1-8.7,38.5-16.6,59.1-20.6c21.4-4.1,43.5-5,65.1-1.1c18.9,3.4,36.5,14.9,50.8,27.3
			c16.4,14.1,26.9,31.2,35.3,51c1.7,4.4,3.7,8.7,5.9,12.9c2.5,4.6,5.7,8.9,7.5,13.8c1.6,4.4,1.9,9.2-1,13.1c-2,2.8-6.3,3.4-8,5.9
			c-0.9,1.3-0.8,2.5,1.2,2.9c2.1,0.4,3-1.9,4.5-2.8c3.7-2.3,8.9-0.3,12.6,1c8.6,3,16,8.7,21,16.3c5,7.3,8.4,15.7,11.7,23.9
			c2.2,5.1,4,10.4,5.3,15.8c0.4,2.1,1,7.7-2.2,5.2c-1.3-1-3.2,6.5-2.9,7.8c1.2,4.2,5.7,8.1,8.3,11.5c6.1,8,10.2,16.9,14.5,25.9
			c9.4,19.5,19.8,38.4,29.8,57.5c20.4,39,42.6,76.5,66,113.7c11.6,18.5,23.5,36.6,35.9,54.5c5.5,7.9,10.9,15.8,16.3,23.8
			c4.5,6.8,9,14.4,7.8,22.8c-1.1,7.8-5.7,14-13.1,16.5c-4,1.4-8.7,2.9-13,2.5c-4.7-0.5-8.8-3.6-12.7-5.9
			c-17.9-10.8-35.8-21.6-53.8-32.4c-20-12.1-38.4-26.4-57.5-39.8c-9.7-6.8-19.8-13-29.9-19.1C430.8,426.5,420.5,416.6,418.3,417.9"
			/>
		<path id="ink-shape-2" class="st1" d="M244.7,452.2c-4.9,7.2-10,14-16.9,19.5c-7.2,5.6-14.9,10.6-23,14.9
			c-14.3,7.9-33.5,14.9-50.1,11.3c-4.7-1-12.3-5.1-8.2-11c2.1-3,6.5-2.2,9.6-2c5,0.3,9.5,0.6,14.3-1.1c8.9-3.1,17.8-6.1,26.5-9.7
			c8.4-3.6,15.8-8.4,23.5-13.2c7.2-4.5,12.8-9.9,19.1-15.3c1.7-1.5,4.7-4.1,6.4-1.2C247.1,446.2,245.3,450.2,244.7,452.2"/>
		<path id="ink-shape-3" class="st1" d="M442.6,105.9c-0.5,3.1-2,9.3-6.4,8.5c-5.6-1.1-2.8-12.1-2.9-15.8
			c-0.4-16.2-5.7-31.8-13.5-45.9c-3.9-7-8.7-13.5-12.2-20.7c-0.7-1.4-2.8-4.9-1.3-6.4c1.8-1.8,5.3,0.9,6.6,2.2
			c5,5,8.9,12.6,12.7,18.5c5.2,7.9,9.5,16.3,12.9,25.1C442.3,82.2,444.5,94.6,442.6,105.9z"/>
		<path id="ink-shape-4" class="st1" d="M453.1,54c0.5,2.8,3.1,10.5-1.5,11.2c-5.2,0.8-6.8-12-8.2-15.4c-0.8-1.8-4.8-9.6-2.7-11.3
			C445,34.9,452,51.7,453.1,54"/>
		<path id="ink-shape-5" class="st1" d="M209.3,433.8c-4.9,4.5-10.6,4.2-16.8,3.8c-3.2-0.2-10.4-2.1-5.4-6
			C189.7,429.6,210.5,428.2,209.3,433.8"/>
		<path id="ink-shape-6" class="st1" d="M592.4,515.8c0.3-0.7,3.3-4,3.9-2.7S593.1,515.8,592.4,515.8"/>
		<path id="ink-shape-7" class="st1" d="M201.4,268.2c-0.6,1.2-3.1,0.2-4,0.3C198.5,266.1,199.9,266.6,201.4,268.2"/>
		<path id="ink-shape-8" class="st1" d="M391.4,135.8c-0.3,1-0.5,2-0.8,3c-0.4-0.7-0.8-1.5-1.2-2.2
			C390,136.3,390.7,136.1,391.4,135.8"/>
		<path id="ink-shape-9" class="st1" d="M396.2,324.8c6.3,0.6,12.6,1,19,1.2c5.3,0.2,7.5-0.8,8.2-6.4c0.8-6.6,1.1-13.2,1.9-19.8
			c0.4-3,3.3-9-0.2-10.6c-2.9-1.3-7.5,0.6-10.6,0.8c-3.4,0.3-8.6-0.8-11.6,1.2c-3.2,2.2-2.5,9.8-3.1,13.3
			C398.7,311.3,397.5,318,396.2,324.8 M393.2,292.8c-5.7,0.4-11.5,0.8-17.2,1.4c-2.5,0.3-7.7,1.5-9.8-0.3c-5-4.3,13.7-5.9,15.9-6.2
			c3.6-0.6,9.7,0.2,12-3.2c2.3-3.3,1.7-9,2.3-12.9c0.9-5.9,1.9-11.7,2.5-17.6c0.2-2-0.1-8.5,2-9.5c4.8-2.2,3.3,20.8,3.2,22.5
			c-0.1,3-0.3,5.9-0.7,8.9c-0.2,1.7-1.1,3.9-0.5,5.6c1.4,4.8,9.7,2,13.4,1.6c4.2-0.4,10.7,1.2,12.1-4c1.7-6.5,1.5-13.9,2.1-20.6
			c0.2-1.9,0.6-15.7,4.1-14.6c3.8,1.2,2.3,12.8,2.3,15.7c0,3.4,0,6.7-0.3,10.1c-0.2,3-1.1,6.7-0.4,9.7c1.1,5.2,7.3,2.5,9.1,6.6
			c1.7,4-7.6,0.9-9.4,2.2c-2.6,2-2,10.5-2.3,13.5c-0.8,6.5-2.4,13.3-2.9,19.8c-0.4,5.1,3.7,4.5,7.9,4.1c3.6-0.3,7.6-1.2,11.2-0.7
			c2.9,0.4,7,3.1,2.7,4.8c-6.6,2.8-20.1-2.9-23.4,5.5c-0.6,1.6-3.5,20.1-7.2,11c-1.5-3.8,2.2-9.8-1.8-12.7c-1.4-1-3.4-0.8-5.1-0.9
			c-4-0.3-7.9-0.4-11.9-0.5s-7.5-0.9-9,3.5c-1.2,3.4-1.1,7.1-2,10.6c-0.7,2.6-3.1,7.1-5.5,2.9c-1.6-2.8-0.4-7.6-0.1-10.7
			c0.2-1.5,1.1-4.6-0.1-5.9c-1.2-1.4-4.5-0.6-6.1-0.5c-4.5,0.4-12.9,2.5-16.3-1.6c-2.9-3.4,3.1-3.5,5.5-3.7s4.9-0.5,7.3-0.7
			c2.7-0.3,6.2,0.1,8.7-0.7c4.2-1.4,3.9-7.1,4.2-10.9C390.3,307.2,392,300,393.2,292.8"/>
		<path id="ink-shape-10" class="st1" d="M467.4,308.3c-0.2,4.4-0.9,8.7-2.2,12.9c-1,3-3.1,3.9-3.8,0.1
			C460.9,318.9,463.9,305.2,467.4,308.3"/>
		<path id="ink-shape-11" class="st1" d="M200.8,280.7c-1.7-1.2-9.7-7.6-3.9-7.8c2.9-0.1,9.3,4.7,9.5,7.4c0,0.7-1.4,1-1.3,1.7
			c0.2,1.2,2,1.8,2.6,2.8c1.3,2.2,0.8,6.5-0.9,8.6c-3.9,4.7-8.2-3.3-5.2-4.9c-0.7,0.4-9.6-4.2-10-5.2
			C189.7,277.6,200.3,282.9,200.8,280.7"/>
		<path id="ink-shape-12" class="st1" d="M214.8,302.8c-2,0.1-6.2-0.1-7.7-1.5c-2.8-2.7,2.7-3.1,4.3-4.3c2.3-1.8,2.7-7.5,6.3-4
			S218.2,300.6,214.8,302.8"/>
		<path id="ink-shape-13" class="st1" d="M185.4,287.9c3.7-0.5,11.9,7.4,7.9,8C190.6,296.2,185.9,290,185.4,287.9"/>
	</g>
</g>
</svg>
